<svg width="226" height="66" viewBox="0 0 226 66" fill="none" xmlns="http://www.w3.org/2000/svg">
<path d="M0.0742325 40.6622L8.9796 28.9931H13.0331L4.31196 40.6622L13.0331 52.2699H8.9796L0.0742325 40.6622ZM11.0063 40.6622L19.9117 28.9931H23.9652L15.2441 40.6622L23.9652 52.2699H19.9117L11.0063 40.6622ZM51.9441 57.7974C47.3174 57.7974 43.1616 56.8352 39.4766 54.9108C35.7916 52.9864 32.9051 50.325 30.8169 46.9267C28.7288 43.4874 27.6847 39.6181 27.6847 35.319C27.6847 31.0199 28.7288 27.1711 30.8169 23.7727C32.9051 20.3334 35.7916 17.6516 39.4766 15.7272C43.1616 13.8028 47.3174 12.8406 51.9441 12.8406C56.5708 12.8406 60.7267 13.8028 64.4116 15.7272C68.0966 17.6516 70.9832 20.3334 73.0713 23.7727C75.1595 27.1711 76.2036 31.0199 76.2036 35.319C76.2036 39.6181 75.1595 43.4874 73.0713 46.9267C70.9832 50.325 68.0966 52.9864 64.4116 54.9108C60.7267 56.8352 56.5708 57.7974 51.9441 57.7974ZM51.9441 46.0668C53.7457 46.0668 55.363 45.6369 56.796 44.7771C58.27 43.8763 59.4369 42.6275 60.2967 41.0307C61.1566 39.3929 61.5865 37.489 61.5865 35.319C61.5865 33.149 61.1566 31.2655 60.2967 29.6687C59.4369 28.0309 58.27 26.7821 56.796 25.9223C55.363 25.0215 53.7457 24.5711 51.9441 24.5711C50.1426 24.5711 48.5048 25.0215 47.0308 25.9223C45.5978 26.7821 44.4513 28.0309 43.5915 29.6687C42.7317 31.2655 42.3018 33.149 42.3018 35.319C42.3018 37.489 42.7317 39.3929 43.5915 41.0307C44.4513 42.6275 45.5978 43.8763 47.0308 44.7771C48.5048 45.6369 50.1426 46.0668 51.9441 46.0668ZM111.453 34.7048L124.166 56.8147H107.829L99.5993 41.2764H95.5459V56.8147H81.0516V13.8233H95.5459V29.8529H99.9678L109.119 13.8233H124.227L111.453 34.7048ZM162.927 45.8826V56.8147H127.182V13.8233H162.128V24.7554H141.431V29.7915H159.61V40.2323H141.431V45.8826H162.927ZM168.806 13.8233H183.055V36.1788L197.856 13.8233H211.491V56.8147H197.242V34.5206L182.502 56.8147H168.806V13.8233ZM190.118 11.3666C185.368 11.3666 181.949 10.4863 179.861 8.72574C177.773 6.96514 176.729 4.32424 176.729 0.803037H186.371C186.371 2.19514 186.638 3.19827 187.17 3.81244C187.743 4.4266 188.726 4.73368 190.118 4.73368C191.51 4.73368 192.493 4.4266 193.066 3.81244C193.68 3.19827 193.987 2.19514 193.987 0.803037H203.629C203.629 4.32424 202.565 6.96514 200.436 8.72574C198.307 10.4863 194.867 11.3666 190.118 11.3666ZM221.891 50.4274C222.832 50.4274 223.61 50.755 224.225 51.4101C224.839 52.0242 225.146 52.8022 225.146 53.7439C225.146 54.2352 225.064 54.7675 224.9 55.3407C224.777 55.9139 224.573 56.569 224.286 57.306L221.706 65.7815H218.758L220.847 56.8761C220.191 56.6714 219.659 56.3029 219.25 55.7706C218.84 55.1974 218.636 54.5218 218.636 53.7439C218.636 52.8022 218.943 52.0242 219.557 51.4101C220.171 50.755 220.949 50.4274 221.891 50.4274Z" fill="white"/>
</svg>
