<svg width="169" height="30" viewBox="0 0 169 30" fill="none" xmlns="http://www.w3.org/2000/svg">
<path d="M15.2408 29.2371C13.0761 29.2371 11.0661 28.9021 9.21068 28.2321C7.38103 27.5363 5.7833 26.5571 4.41751 25.2944C3.07748 24.0316 2.03381 22.537 1.28649 20.8104C0.539164 19.0839 0.165503 17.1769 0.165503 15.0895C0.165503 13.0022 0.539164 11.0952 1.28649 9.36867C2.03381 7.6421 3.07748 6.14745 4.41751 4.88474C5.7833 3.62202 7.38103 2.65566 9.21068 1.98564C11.0661 1.28986 13.0761 0.94197 15.2408 0.94197C17.8951 0.94197 20.2401 1.40583 22.2759 2.33354C24.3375 3.26124 26.0383 4.60127 27.3783 6.35361L21.6188 11.4947C20.8199 10.4897 19.9309 9.71656 18.9516 9.1754C17.9982 8.60846 16.9158 8.32499 15.7046 8.32499C14.7512 8.32499 13.8879 8.47961 13.1148 8.78885C12.3417 9.09809 11.6717 9.54906 11.1048 10.1418C10.5636 10.7345 10.1384 11.456 9.82915 12.3064C9.51991 13.131 9.36529 14.0588 9.36529 15.0895C9.36529 16.1203 9.51991 17.0609 9.82915 17.9113C10.1384 18.736 10.5636 19.4446 11.1048 20.0373C11.6717 20.63 12.3417 21.081 13.1148 21.3902C13.8879 21.6995 14.7512 21.8541 15.7046 21.8541C16.9158 21.8541 17.9982 21.5835 18.9516 21.0424C19.9309 20.4754 20.8199 19.6894 21.6188 18.6844L27.3783 23.8255C26.0383 25.5521 24.3375 26.8921 22.2759 27.8456C20.2401 28.7733 17.8951 29.2371 15.2408 29.2371ZM46.7561 28.6187L40.0302 15.9399L47.2972 11.6879L57.0382 28.6187H46.7561ZM29.9027 28.6187V1.56044H39.0251V28.6187H29.9027ZM36.3966 18.839V11.6493H46.6401V18.839H36.3966ZM48.1863 16.0559L39.7982 15.2055L47.5678 1.56044H57.0768L48.1863 16.0559ZM55.8634 28.6187L67.6917 1.56044H76.6596L88.4879 28.6187H79.0562L70.3203 5.88976H73.8765L65.1405 28.6187H55.8634ZM62.8986 23.9028L65.2178 17.3315H77.6646L79.9839 23.9028H62.8986ZM120.4 28.6187L114.602 15.9399L122.255 11.6879L130.875 28.6187H120.4ZM110.93 18.839V11.6493H119.936V18.839H110.93ZM122.758 16.0559L114.331 15.2055L120.98 1.56044H130.489L122.758 16.0559ZM97.7484 28.6187H87.273L95.9316 11.6879L103.585 15.9399L97.7484 28.6187ZM113.558 28.6187H104.668V1.56044H113.558V28.6187ZM107.296 18.839H98.2123V11.6493H107.296V18.839ZM95.4291 16.0559L87.6596 1.56044H97.1686L103.701 15.2055L95.4291 16.0559ZM132.698 28.6187V1.56044H141.665V15.6307L150.981 1.56044H159.563V28.6187H150.595V14.587L141.318 28.6187H132.698ZM166.069 12.3451C165.503 12.3451 165.013 12.1389 164.601 11.7266C164.214 11.3143 164.021 10.8118 164.021 10.2191C164.021 9.6006 164.214 9.09809 164.601 8.71154C165.013 8.32499 165.503 8.13172 166.069 8.13172C166.636 8.13172 167.113 8.32499 167.5 8.71154C167.912 9.09809 168.118 9.6006 168.118 10.2191C168.118 10.8118 167.912 11.3143 167.5 11.7266C167.113 12.1389 166.636 12.3451 166.069 12.3451ZM166.069 28.8119C165.503 28.8119 165.013 28.6058 164.601 28.1935C164.214 27.7811 164.021 27.2786 164.021 26.6859C164.021 26.0674 164.214 25.5649 164.601 25.1784C165.013 24.7918 165.503 24.5986 166.069 24.5986C166.636 24.5986 167.113 24.7918 167.5 25.1784C167.912 25.5649 168.118 26.0674 168.118 26.6859C168.118 27.2786 167.912 27.7811 167.5 28.1935C167.113 28.6058 166.636 28.8119 166.069 28.8119Z" fill="white"/>
</svg>
