<svg width="296" height="37" viewBox="0 0 296 37" fill="none" xmlns="http://www.w3.org/2000/svg">
<path d="M32.9405 0.50601V35.4053H21.3739V27.1292H18.233L12.8984 35.4053H0.583907L7.46405 25.4341C5.2039 24.3705 3.45894 22.8748 2.22916 20.947C1.03261 18.986 0.434339 16.676 0.434339 14.017C0.434339 11.2583 1.08247 8.86522 2.37873 6.83774C3.70822 4.81025 5.58614 3.2481 8.01246 2.15126C10.4388 1.05443 13.2972 0.50601 16.5877 0.50601H32.9405ZM16.7871 9.57982C13.7958 9.57982 12.3001 10.9924 12.3001 13.8176C12.3001 16.7757 13.7958 18.2548 16.7871 18.2548H21.3739V9.57982H16.7871ZM70.2967 35.4053L70.197 19.5012L62.6189 32.2643H57.4339L49.8557 20.0496V35.4053H39.1367V0.50601H48.8088L60.176 19.1023L71.244 0.50601H80.9161L81.0158 35.4053H70.2967ZM111.772 29.3228H98.5098L96.1666 35.4053H84.2011L99.4571 0.50601H111.024L126.28 35.4053H114.115L111.772 29.3228ZM108.531 20.8473L105.141 12.0726L101.75 20.8473H108.531ZM156.074 9.62968H141.067V35.4053H129.501V0.50601H156.074V9.62968ZM194.879 0.50601L180.869 26.7802C179.207 29.9045 177.163 32.281 174.737 33.9096C172.344 35.5382 169.701 36.3525 166.81 36.3525C164.583 36.3525 162.323 35.8872 160.029 34.9566L162.771 26.481C164.234 26.8799 165.43 27.0793 166.361 27.0793C167.225 27.0793 167.956 26.9297 168.555 26.6306C169.186 26.3315 169.784 25.8329 170.349 25.1349L156.988 0.50601H169.402L176.332 15.2136L183.511 0.50601H194.879ZM230.011 0.50601V35.4053H218.444V24.2375C216.117 24.9355 214.007 25.2845 212.112 25.2845C206.994 25.2845 203.088 24.0713 200.396 21.645C197.737 19.2187 196.408 15.6789 196.408 11.0256V0.50601H207.974V9.72939C207.974 11.8566 208.44 13.4354 209.37 14.4657C210.301 15.4628 211.714 15.9614 213.608 15.9614C215.569 15.9614 217.181 15.6955 218.444 15.1637V0.50601H230.011ZM236.175 0.50601H247.742V18.6536L259.757 0.50601H270.825V35.4053H259.259V17.3075L247.293 35.4053H236.175V0.50601ZM275.828 31.7159L282.907 22.2931L275.828 12.8205H279.118L286.347 22.2931L279.118 31.7159H275.828ZM284.702 31.7159L291.782 22.2931L284.702 12.8205H287.993L295.222 22.2931L287.993 31.7159H284.702Z" fill="white"/>
</svg>
